<svg width="390" height="128" viewBox="0 0 390 128" fill="none" xmlns="http://www.w3.org/2000/svg">
<path d="M127 127H0V0C36.43 0 33.84 52.43 57 77C78.43 99.74 127 93.29 127 127Z" fill="#EDEDED"/>
<path d="M127 0H219C238.32 0 254 15.68 254 35H127V0Z" fill="#EAD965"/>
<path d="M127 46H219C238.32 46 254 61.68 254 81H127V46Z" fill="#EAD965"/>
<path d="M127 92H219C238.32 92 254 107.68 254 127H127V92Z" fill="#EAD965"/>
<path d="M263 0H355C374.32 0 390 15.68 390 35H263V0Z" fill="#EAD965"/>
<path d="M263 46H355C374.32 46 390 61.68 390 81H263V46Z" fill="#EAD965"/>
<path d="M263 93H355C374.32 93 390 108.68 390 128H263V93Z" fill="#EAD965"/>
</svg>
